<?xml version="1.0" encoding="utf-8"?>
<!-- Generator: Adobe Illustrator 16.0.0, SVG Export Plug-In . SVG Version: 6.00 Build 0)  -->
<!DOCTYPE svg PUBLIC "-//W3C//DTD SVG 1.1//EN" "http://www.w3.org/Graphics/SVG/1.1/DTD/svg11.dtd">
<svg version="1.1" id="Layer_1" xmlns="http://www.w3.org/2000/svg" xmlns:xlink="http://www.w3.org/1999/xlink" x="0px" y="0px"
	 width="240px" height="240px" viewBox="0 0 240 240" style="enable-background:new 0 0 240 240;" xml:space="preserve">
<style type="text/css">
<![CDATA[
	.st0{opacity:0.2;fill:url(#alug);}
	.st1{fill:none;}
]]>
</style>
<pattern  x="-215" y="-69" width="240" height="240" patternUnits="userSpaceOnUse" id="alug" viewBox="16 -262.4 240 240" style="overflow:visible;">
	<g>
		<polygon class="st1" points="16,-262.4 256,-262.4 256,-22.4 16,-22.4 		"/>
		<g>
			<path d="M281-246.3l-10.9,21.6c-0.7,1.5-2.6,2.1-4,1.3l-21.6-10.9c-1.5-0.7-2.1-2.6-1.3-4l10.9-21.6c0.7-1.5,2.6-2.1,4-1.3
				l21.6,10.9C281.1-249.6,281.7-247.8,281-246.3z M279-249.1l-5.9-3l-7.6,15l7.4,3.7l6.8-13.5C280.1-247.7,279.8-248.7,279-249.1z
				 M245-235.7l19.1-1.7l7.8-15.4l-14.3-7.2c-0.8-0.4-1.8-0.1-2.2,0.7l-10.9,21.6C244.1-237,244.3-236.1,245-235.7z M268.9-225.4
				l3.4-6.7l-7.6-3.8l-17.3,1.5l19.3,9.8C267.5-224.3,268.5-224.6,268.9-225.4z"/>
			<path d="M272.3-114.1l2.8,13.6c0.2,0.9-0.4,1.9-1.3,2l-13.6,2.8c-0.9,0.2-1.8-0.4-2-1.3l-2.8-13.6c-0.2-0.9,0.4-1.8,1.3-2
				l13.6-2.8C271.1-115.6,272.1-115,272.3-114.1z M270.4-114.6l-3.7,0.8l2,9.5l4.6-1l-1.8-8.6C271.4-114.4,270.9-114.7,270.4-114.6z
				 M259.8-96.4l8-7.6l-2-9.7l-9.1,1.9c-0.5,0.1-0.8,0.6-0.7,1.1l2.8,13.6C258.9-96.7,259.4-96.3,259.8-96.4z M274.3-100.3l-0.9-4.2
				l-4.8,1l-7.3,6.9l12.2-2.5C274.1-99.3,274.4-99.8,274.3-100.3z"/>
			<path d="M260.5-195.6l-2.2,14.6c-0.2,1-1.1,1.7-2.1,1.5l-14.6-2.2c-1-0.2-1.7-1.1-1.5-2.1l2.2-14.6c0.2-1,1.1-1.7,2.1-1.5
				l14.6,2.2C260-197.6,260.7-196.6,260.5-195.6z M258.9-196.9l-4-0.6l-1.5,10.2l5,0.8l1.4-9.2C259.8-196.3,259.4-196.8,258.9-196.9
				z M241.6-182.6l10.8-4.6l1.6-10.5l-9.7-1.5c-0.5-0.1-1,0.3-1.1,0.8l-2.2,14.6C240.8-183.2,241.1-182.7,241.6-182.6z M257.4-181.1
				l0.7-4.6l-5.1-0.8l-9.8,4.2l13.1,2C256.9-180.2,257.4-180.6,257.4-181.1z"/>
			<path d="M273-154.3l-4.2,22.7c-0.3,1.6-1.8,2.6-3.3,2.3l-22.7-4.2c-1.6-0.3-2.6-1.8-2.3-3.3l4.2-22.7c0.3-1.6,1.8-2.6,3.3-2.3
				l22.7,4.2C272.3-157.3,273.3-155.8,273-154.3z M270.5-156.3l-6.2-1.1l-2.9,15.8l7.8,1.4l2.6-14.3
				C271.9-155.3,271.3-156.1,270.5-156.3z M242.8-134.8l17.1-6.7l3-16.2l-15.1-2.8c-0.8-0.2-1.6,0.4-1.8,1.2l-4.2,22.7
				C241.7-135.7,242.1-135,242.8-134.8z M267.6-131.8l1.3-7.1l-8-1.5l-15.5,6.1l20.4,3.7C266.6-130.4,267.4-131,267.6-131.8z"/>
			<path d="M266.8-81.2l12,20.3c0.8,1.4,0.4,3.2-1,4l-20.3,12c-1.4,0.8-3.2,0.4-4-1l-12-20.3c-0.8-1.4-0.4-3.2,1-4l20.3-12
				C264.2-83.1,266-82.6,266.8-81.2z M263.5-81.1l-5.6,3.3l8.3,14.1l6.9-4.1l-7.5-12.8C265.2-81.3,264.2-81.5,263.5-81.1z M256.5-46
				l8.7-16.6l-8.6-14.5l-13.5,8c-0.7,0.4-1,1.4-0.6,2.1l12,20.3C255-45.9,255.8-45.7,256.5-46z M277.6-60.2l-3.7-6.3l-7.2,4.2
				l-7.9,15l18.2-10.7C277.8-58.5,278.1-59.5,277.6-60.2z"/>
		</g>
		<g>
			<path d="M96.5-148.1l-9.2,19.5c-0.6,1.3-2.2,1.9-3.6,1.3l-19.5-9.2c-1.3-0.6-1.9-2.2-1.3-3.6l9.2-19.5c0.6-1.3,2.2-1.9,3.6-1.3
				l19.5,9.2C96.6-151,97.1-149.4,96.5-148.1z M94.7-150.5l-5.4-2.5L83-139.5l6.7,3.1l5.8-12.3C95.7-149.3,95.4-150.2,94.7-150.5z
				 M64.6-137.7l17-2l6.6-14l-13-6.1c-0.7-0.3-1.6,0-1.9,0.7l-9.2,19.5C63.8-138.8,64-138.1,64.6-137.7z M86.2-129.1l2.9-6.1
				l-6.9-3.2l-15.4,1.8l17.5,8.2C85-128.1,85.9-128.4,86.2-129.1z"/>
			<path d="M83.4-106.2l-2,26.9c-0.1,1.8-1.8,3.2-3.6,3.1l-26.9-2c-1.8-0.1-3.2-1.8-3.1-3.6l2-26.9c0.1-1.8,1.8-3.2,3.6-3.1l26.9,2
				C82.2-109.7,83.5-108,83.4-106.2z M80.2-108.2l-7.4-0.5l-1.4,18.7l9.2,0.7l1.3-16.9C81.9-107.3,81.2-108.2,80.2-108.2z
				 M50.7-79.8l19-9.9l1.4-19.3l-17.9-1.3c-1-0.1-1.8,0.7-1.9,1.7l-2,26.9C49.3-80.7,49.9-79.9,50.7-79.8z M79.8-79.4l0.6-8.4
				L71-88.5l-17.2,9l24.2,1.8C78.9-77.6,79.8-78.4,79.8-79.4z"/>
			<path d="M197.9-44.4l-0.3,26.3c0,1.8-1.5,3.2-3.3,3.2l-26.3-0.3c-1.8,0-3.2-1.5-3.2-3.3l0.3-26.2c0-1.8,1.5-3.2,3.3-3.2l26.3,0.3
				C196.5-47.7,197.9-46.2,197.9-44.4z M194.7-46.2l-7.2-0.1l-0.2,18.2l9,0.1l0.2-16.5C196.4-45.4,195.6-46.2,194.7-46.2z
				 M167.9-16.8l17.8-10.8l0.2-18.8l-17.5-0.2c-1,0-1.8,0.8-1.8,1.7l-0.3,26.2C166.4-17.6,167-16.9,167.9-16.8z M196.1-18.2l0.1-8.2
				l-9.2-0.1l-16.2,9.8l23.5,0.2C195.3-16.5,196.1-17.2,196.1-18.2z"/>
			<path d="M128.8-138.7l6.8,18.1c0.5,1.2-0.2,2.6-1.4,3.1l-18.1,6.8c-1.2,0.5-2.6-0.2-3.1-1.4l-6.8-18.1c-0.5-1.2,0.2-2.6,1.4-3.1
				l18.1-6.8C126.9-140.6,128.3-140,128.8-138.7z M126.1-139.1l-5,1.9l4.7,12.6l6.2-2.3l-4.3-11.4
				C127.5-139,126.7-139.3,126.1-139.1z M115.4-111.7l9.4-12.1l-4.8-13l-12.1,4.5c-0.7,0.2-1,1-0.8,1.7l6.8,18.1
				C114.2-111.9,114.8-111.6,115.4-111.7z M134.5-120.2l-2.1-5.7l-6.4,2.4l-8.5,11l16.3-6.1C134.4-118.8,134.7-119.5,134.5-120.2z"
				/>
			<path d="M41-246.3l-10.9,21.6c-0.7,1.5-2.6,2.1-4,1.3L4.5-234.3c-1.5-0.7-2.1-2.6-1.3-4l10.9-21.6c0.7-1.5,2.6-2.1,4-1.3
				l21.6,10.9C41.1-249.6,41.7-247.8,41-246.3z M39-249.1l-5.9-3l-7.6,15l7.4,3.7l6.8-13.5C40.1-247.7,39.8-248.7,39-249.1z
				 M5-235.7l19.1-1.7l7.8-15.4L17.5-260c-0.8-0.4-1.8-0.1-2.2,0.7L4.4-237.7C4.1-237,4.3-236.1,5-235.7z M28.9-225.4l3.4-6.7
				l-7.6-3.8l-17.3,1.5l19.3,9.8C27.5-224.3,28.5-224.6,28.9-225.4z"/>
			<path d="M159.4-238.7l-10.3,22.4c-0.7,1.5-2.5,2.2-4.1,1.5l-22.4-10.3c-1.5-0.7-2.2-2.5-1.5-4.1l10.3-22.4
				c0.7-1.5,2.5-2.2,4.1-1.5l22.4,10.3C159.4-242.1,160.1-240.3,159.4-238.7z M157.3-241.5l-6.2-2.8l-7.2,15.5l7.6,3.5l6.5-14.1
				C158.5-240.1,158.1-241.1,157.3-241.5z M123.1-226.6l19.4-2.4l7.4-16l-14.9-6.9c-0.8-0.4-1.8,0-2.2,0.8l-10.3,22.4
				C122.1-227.9,122.4-227,123.1-226.6z M147.8-216.9l3.2-7l-7.9-3.6l-17.6,2.2l20.1,9.2C146.5-215.8,147.4-216.1,147.8-216.9z"/>
			<path d="M180.9-78.8L173-63.5c-0.5,1-1.8,1.5-2.9,0.9l-15.3-7.9c-1-0.5-1.5-1.8-0.9-2.9l7.9-15.3c0.5-1,1.8-1.5,2.9-0.9l15.3,7.9
				C181-81.1,181.4-79.8,180.9-78.8z M179.5-80.8l-4.2-2.2l-5.5,10.6l5.2,2.7l4.9-9.6C180.3-79.8,180-80.5,179.5-80.8z M155.2-71.4
				l13.6-1.1l5.6-10.9l-10.2-5.2c-0.6-0.3-1.2-0.1-1.5,0.5l-7.9,15.3C154.6-72.3,154.7-71.7,155.2-71.4z M172.1-63.9l2.5-4.8
				l-5.4-2.8l-12.3,1l13.7,7C171.1-63.2,171.8-63.4,172.1-63.9z"/>
			<path d="M204.3-67.4l-2,12c-0.1,0.8-0.9,1.4-1.7,1.2l-12-2c-0.8-0.1-1.4-0.9-1.2-1.7l2-12c0.1-0.8,0.9-1.4,1.7-1.2l12,2
				C203.9-69,204.4-68.2,204.3-67.4z M202.9-68.5l-3.3-0.5l-1.4,8.3l4.1,0.7l1.3-7.5C203.7-68,203.4-68.4,202.9-68.5z M188.6-56.9
				l8.9-3.7l1.4-8.6l-8-1.3c-0.4-0.1-0.9,0.2-0.9,0.7l-2,12C188-57.4,188.2-57,188.6-56.9z M201.6-55.6l0.6-3.7L198-60l-8.1,3.3
				l10.7,1.8C201.1-54.8,201.5-55.1,201.6-55.6z"/>
			<path d="M142.2-78.6l2.2,16.3c0.1,1.1-0.6,2.1-1.8,2.3l-16.3,2.2c-1.1,0.1-2.1-0.6-2.3-1.8l-2.2-16.3c-0.1-1.1,0.6-2.1,1.8-2.3
				l16.3-2.2C141-80.5,142-79.7,142.2-78.6z M140-79.4l-4.5,0.6l1.5,11.3l5.6-0.7l-1.4-10.2C141.1-79,140.6-79.5,140-79.4z
				 M126-58.8l10.1-8.3l-1.5-11.6l-10.8,1.4c-0.6,0.1-1,0.6-0.9,1.2l2.2,16.3C125-59.2,125.5-58.8,126-58.8z M143.4-62.2l-0.7-5.1
				l-5.7,0.8l-9.1,7.5l14.6-1.9C143.1-61,143.5-61.6,143.4-62.2z"/>
			<path d="M119.5-49.3l10.4,21.1c0.7,1.4,0.1,3.2-1.3,3.9l-21.1,10.4c-1.5,0.7-3.2,0.1-3.9-1.3L93.1-36.3c-0.7-1.4-0.1-3.2,1.3-3.9
				l21.1-10.4C117-51.3,118.8-50.8,119.5-49.3z M116.2-49.4l-5.8,2.9l7.2,14.7l7.2-3.6l-6.5-13.3C117.9-49.5,116.9-49.8,116.2-49.4z
				 M106.6-15l9.9-15.9l-7.4-15.1L95-39c-0.8,0.4-1.1,1.3-0.7,2.1l10.4,21.1C105.1-15,105.9-14.7,106.6-15z M128.7-27.6l-3.3-6.6
				l-7.4,3.7l-9,14.4l19-9.3C128.7-25.8,129.1-26.8,128.7-27.6z"/>
			<path d="M119.7-95.1l-5.3,15.7c-0.4,1.1-1.5,1.6-2.6,1.3l-15.7-5.3C95-83.8,94.4-85,94.8-86l5.3-15.7c0.4-1.1,1.5-1.6,2.6-1.3
				l15.7,5.3C119.4-97.3,120-96.1,119.7-95.1z M118.1-96.8l-4.3-1.5l-3.7,10.9l5.3,1.8l3.3-9.8C118.9-95.9,118.6-96.6,118.1-96.8z
				 M96.2-84.4l12.8-2.9l3.8-11.2l-10.4-3.5c-0.6-0.2-1.2,0.1-1.4,0.7l-5.3,15.7C95.5-85.2,95.8-84.6,96.2-84.4z M113.4-79.7
				l1.7-4.9l-5.5-1.9L98-83.8l14,4.8C112.6-78.8,113.2-79.1,113.4-79.7z"/>
			<path d="M171.9-179.5l-3.5,10.4c-0.2,0.7-1,1.1-1.7,0.9l-10.4-3.5c-0.7-0.2-1.1-1-0.9-1.7l3.5-10.4c0.2-0.7,1-1.1,1.7-0.9
				l10.4,3.5C171.7-181,172.1-180.2,171.9-179.5z M170.8-180.7l-2.9-1l-2.5,7.2l3.5,1.2l2.2-6.5
				C171.4-180.1,171.2-180.5,170.8-180.7z M156.3-172.4l8.5-2l2.5-7.4l-6.9-2.4c-0.4-0.1-0.8,0.1-0.9,0.5l-3.5,10.4
				C155.8-173,156-172.6,156.3-172.4z M167.7-169.3l1.1-3.2l-3.7-1.2l-7.7,1.8l9.3,3.2C167.2-168.7,167.6-168.9,167.7-169.3z"/>
			<path d="M243.9-216.9l-3.5,10.4c-0.2,0.7-1,1.1-1.7,0.9l-10.4-3.5c-0.7-0.2-1.1-1-0.9-1.7l3.5-10.4c0.2-0.7,1-1.1,1.7-0.9
				l10.4,3.5C243.7-218.3,244.1-217.6,243.9-216.9z M242.8-218l-2.9-1l-2.5,7.2l3.5,1.2l2.2-6.5C243.4-217.4,243.2-217.9,242.8-218z
				 M228.3-209.8l8.5-2l2.5-7.4l-6.9-2.4c-0.4-0.1-0.8,0.1-0.9,0.5l-3.5,10.4C227.8-210.3,228-209.9,228.3-209.8z M239.7-206.7
				l1.1-3.2l-3.7-1.2l-7.7,1.8l9.3,3.2C239.2-206.1,239.6-206.3,239.7-206.7z"/>
			<path d="M32.3-114.1l2.8,13.6c0.2,0.9-0.4,1.9-1.3,2l-13.6,2.8c-0.9,0.2-1.8-0.4-2-1.3l-2.8-13.6c-0.2-0.9,0.4-1.8,1.3-2
				l13.6-2.8C31.1-115.6,32.1-115,32.3-114.1z M30.4-114.6l-3.7,0.8l2,9.5l4.6-1l-1.8-8.6C31.4-114.4,30.9-114.7,30.4-114.6z
				 M19.8-96.4l8-7.6l-2-9.7l-9.1,1.9c-0.5,0.1-0.8,0.6-0.7,1.1l2.8,13.6C18.9-96.7,19.4-96.3,19.8-96.4z M34.3-100.3l-0.9-4.2
				l-4.8,1l-7.3,6.9l12.2-2.5C34.1-99.3,34.4-99.8,34.3-100.3z"/>
			<path d="M56.7-131.7l-2.4,9.1c-0.2,0.6-0.8,1-1.4,0.8l-9.1-2.4c-0.6-0.2-1-0.8-0.8-1.4l2.4-9.1c0.2-0.6,0.8-1,1.4-0.8l9.1,2.4
				C56.5-133,56.9-132.3,56.7-131.7z M55.8-132.6l-2.5-0.7l-1.7,6.3l3.1,0.8l1.5-5.7C56.3-132.2,56.1-132.5,55.8-132.6z M43.8-124.8
				L51-127l1.7-6.5l-6-1.6c-0.3-0.1-0.7,0.1-0.8,0.4l-2.4,9.1C43.4-125.3,43.6-124.9,43.8-124.8z M53.8-122.8l0.8-2.8l-3.2-0.9
				l-6.5,1.9l8.1,2.2C53.3-122.3,53.7-122.5,53.8-122.8z"/>
			<path d="M190.9-206.3l-8.7,17c-0.6,1.2-2,1.6-3.2,1l-17-8.7c-1.2-0.6-1.6-2-1-3.2l8.7-17c0.6-1.2,2-1.6,3.2-1l17,8.7
				C191.1-208.9,191.5-207.5,190.9-206.3z M189.4-208.5l-4.7-2.4l-6.1,11.8l5.8,3l5.5-10.7C190.3-207.5,190-208.2,189.4-208.5z
				 M162.4-198.1l15.1-1.2l6.2-12.1l-11.3-5.8c-0.6-0.3-1.4-0.1-1.7,0.5l-8.7,17C161.7-199.2,161.9-198.5,162.4-198.1z M181.2-189.9
				l2.7-5.3l-6-3.1l-13.7,1.1l15.2,7.8C180.1-189,180.9-189.2,181.2-189.9z"/>
			<path d="M215.5-189.9l10.7,21.6c0.7,1.5,0.1,3.3-1.4,4l-21.6,10.7c-1.5,0.7-3.3,0.1-4-1.4l-10.7-21.6c-0.7-1.5-0.1-3.3,1.4-4
				l21.6-10.7C213-192,214.8-191.4,215.5-189.9z M212.1-190l-5.9,2.9l7.4,15l7.4-3.6l-6.7-13.5C213.9-190.1,212.9-190.4,212.1-190z
				 M202.5-154.8l10.1-16.2l-7.6-15.4l-14.3,7.1c-0.8,0.4-1.1,1.4-0.7,2.1l10.7,21.6C200.9-154.9,201.7-154.6,202.5-154.8z
				 M224.9-167.7l-3.3-6.7l-7.6,3.8l-9.1,14.7l19.3-9.6C225-166,225.3-166.9,224.9-167.7z"/>
			<path d="M185.2-243.3l-5.4,10.5c-0.4,0.7-1.3,1-2,0.6l-10.5-5.4c-0.7-0.4-1-1.3-0.6-2l5.4-10.5c0.4-0.7,1.3-1,2-0.6l10.5,5.4
				C185.3-244.9,185.6-244,185.2-243.3z M184.3-244.6l-2.9-1.5l-3.8,7.3l3.6,1.8l3.4-6.6C184.8-244,184.7-244.4,184.3-244.6z
				 M167.5-238.2l9.4-0.7l3.9-7.5l-7-3.6c-0.4-0.2-0.9,0-1.1,0.3l-5.4,10.5C167.1-238.8,167.2-238.4,167.5-238.2z M179.2-233
				l1.7-3.3l-3.7-1.9l-8.5,0.7l9.5,4.9C178.5-232.5,179-232.6,179.2-233z"/>
			<path d="M148-104.4l5.1,8.2c0.3,0.6,0.2,1.3-0.4,1.7l-8.2,5.1c-0.6,0.3-1.3,0.2-1.7-0.4l-5.1-8.2c-0.3-0.6-0.2-1.3,0.4-1.7
				l8.2-5.1C146.9-105.2,147.6-105,148-104.4z M146.6-104.3l-2.3,1.4l3.5,5.7l2.8-1.7l-3.2-5.2C147.3-104.4,146.9-104.5,146.6-104.3
				z M144.1-89.9l3.4-6.9l-3.6-5.9l-5.5,3.4c-0.3,0.2-0.4,0.6-0.2,0.9l5.1,8.2C143.4-89.9,143.8-89.8,144.1-89.9z M152.6-95.9
				l-1.6-2.6l-2.9,1.8l-3.1,6.2l7.4-4.6C152.7-95.2,152.8-95.6,152.6-95.9z"/>
			<path d="M190.3-117.8l9.1,14.7c0.6,1,0.3,2.3-0.7,3L184-91c-1,0.6-2.3,0.3-3-0.7l-9.1-14.7c-0.6-1-0.3-2.3,0.7-3l14.7-9.1
				C188.4-119.1,189.7-118.8,190.3-117.8z M187.9-117.6l-4.1,2.5l6.3,10.2l5-3.1l-5.7-9.3C189.1-117.8,188.4-118,187.9-117.6z
				 M183.3-91.7l6.1-12.3l-6.5-10.5l-9.8,6.1c-0.5,0.3-0.7,1-0.4,1.6l9.1,14.7C182.2-91.7,182.8-91.5,183.3-91.7z M198.6-102.5
				l-2.8-4.6l-5.2,3.2L185-92.7l13.2-8.2C198.8-101.3,198.9-102,198.6-102.5z"/>
			<path d="M66.8-60.6l1.3,9.6c0.1,0.7-0.4,1.3-1,1.4l-9.6,1.3c-0.7,0.1-1.3-0.4-1.4-1l-1.3-9.6c-0.1-0.7,0.4-1.3,1-1.4l9.6-1.3
				C66.1-61.7,66.7-61.3,66.8-60.6z M65.5-61.1l-2.6,0.4l0.9,6.6l3.3-0.5l-0.8-6C66.2-60.9,65.9-61.1,65.5-61.1z M57.4-48.9l5.9-4.9
				l-1-6.8L56-59.7c-0.3,0-0.6,0.4-0.5,0.7l1.3,9.6C56.8-49.1,57.1-48.9,57.4-48.9z M67.6-51l-0.4-3l-3.4,0.5L58.5-49l8.6-1.2
				C67.4-50.3,67.7-50.6,67.6-51z"/>
			<path d="M91.7-62.5l1,7.2c0.1,0.5-0.3,1-0.8,1l-7.2,1c-0.5,0.1-1-0.3-1-0.8l-1-7.2c-0.1-0.5,0.3-1,0.8-1l7.2-1
				C91.2-63.3,91.6-63,91.7-62.5z M90.8-62.8l-2,0.3l0.7,5l2.5-0.3l-0.6-4.5C91.3-62.7,91-62.9,90.8-62.8z M84.6-53.7l4.4-3.7
				l-0.7-5.1l-4.8,0.7c-0.3,0-0.4,0.3-0.4,0.5l1,7.2C84.2-53.9,84.4-53.7,84.6-53.7z M92.3-55.2L92-57.5l-2.5,0.4l-4,3.3l6.5-0.9
				C92.2-54.7,92.3-55,92.3-55.2z"/>
			<path d="M225.4-64.2l1,7.2c0.1,0.5-0.3,1-0.8,1l-7.2,1c-0.5,0.1-1-0.3-1-0.8l-1-7.2c-0.1-0.5,0.3-1,0.8-1l7.2-1
				C224.9-65,225.3-64.7,225.4-64.2z M224.4-64.5l-2,0.3l0.7,5l2.5-0.3l-0.6-4.5C224.9-64.4,224.7-64.6,224.4-64.5z M218.3-55.3
				l4.4-3.7l-0.7-5.1l-4.8,0.7c-0.3,0-0.4,0.3-0.4,0.5l1,7.2C217.9-55.5,218.1-55.3,218.3-55.3z M226-56.9l-0.3-2.2l-2.5,0.4l-4,3.3
				l6.5-0.9C225.8-56.4,226-56.6,226-56.9z"/>
			<path d="M136.2-206.8l1,7.2c0.1,0.5-0.3,1-0.8,1l-7.2,1c-0.5,0.1-1-0.3-1-0.8l-1-7.2c-0.1-0.5,0.3-1,0.8-1l7.2-1
				C135.7-207.7,136.2-207.3,136.2-206.8z M135.3-207.2l-2,0.3l0.7,5l2.5-0.3l-0.6-4.5C135.8-207.1,135.5-207.2,135.3-207.2z
				 M129.2-198l4.4-3.7l-0.7-5.1l-4.8,0.7c-0.3,0-0.4,0.3-0.4,0.5l1,7.2C128.7-198.2,128.9-198,129.2-198z M136.8-199.6l-0.3-2.2
				l-2.5,0.4l-4,3.3l6.5-0.9C136.7-199.1,136.9-199.3,136.8-199.6z"/>
			<path d="M154.5-33.2l0.2,9.7c0,0.7-0.5,1.2-1.2,1.2l-9.7,0.2c-0.7,0-1.2-0.5-1.2-1.2l-0.2-9.7c0-0.7,0.5-1.2,1.2-1.2l9.7-0.2
				C154-34.4,154.5-33.9,154.5-33.2z M153.3-33.8l-2.7,0.1l0.1,6.7l3.3-0.1l-0.1-6.1C154-33.6,153.7-33.8,153.3-33.8z M143.8-22.7
				l6.4-4.2l-0.1-6.9l-6.4,0.1c-0.4,0-0.6,0.3-0.6,0.7l0.2,9.7C143.2-23,143.5-22.7,143.8-22.7z M154.2-23.6l-0.1-3l-3.4,0.1
				l-5.8,3.8l8.7-0.2C153.9-22.9,154.2-23.2,154.2-23.6z"/>
			<path d="M59.7-194.7l9.8,15.9c0.7,1.1,0.3,2.5-0.7,3.2l-15.9,9.8c-1.1,0.7-2.5,0.3-3.2-0.7l-9.8-15.9c-0.7-1.1-0.3-2.5,0.8-3.2
				l15.8-9.8C57.6-196.2,59.1-195.8,59.7-194.7z M57.1-194.6l-4.4,2.7l6.8,11l5.4-3.4l-6.2-10C58.4-194.8,57.7-194.9,57.1-194.6z
				 M52.2-166.7l6.6-13.2l-7-11.3l-10.5,6.5c-0.6,0.4-0.8,1.1-0.4,1.7l9.8,15.9C51-166.7,51.7-166.5,52.2-166.7z M68.6-178.3
				l-3.1-4.9l-5.6,3.5l-6,12l14.2-8.8C68.8-177,69-177.7,68.6-178.3z"/>
			<path d="M237.1-122.1l9.8,15.9c0.7,1.1,0.3,2.5-0.7,3.2l-15.9,9.8c-1.1,0.7-2.5,0.3-3.2-0.7l-9.8-15.9c-0.7-1.1-0.3-2.5,0.8-3.2
				l15.8-9.8C235-123.5,236.4-123.2,237.1-122.1z M234.4-121.9l-4.4,2.7l6.8,11l5.4-3.4l-6.2-10C235.8-122.1,235-122.3,234.4-121.9z
				 M229.6-94.1l6.6-13.2l-7-11.3l-10.5,6.5c-0.6,0.4-0.8,1.1-0.4,1.7l9.8,15.9C228.3-94,229-93.8,229.6-94.1z M246-105.7l-3.1-4.9
				l-5.6,3.5l-6,12l14.2-8.8C246.1-104.3,246.3-105.1,246-105.7z"/>
			<path d="M229.7-42.4l9.8,15.9c0.7,1.1,0.3,2.5-0.7,3.2l-15.9,9.8c-1.1,0.7-2.5,0.3-3.2-0.7l-9.8-15.9c-0.7-1.1-0.3-2.5,0.8-3.2
				l15.8-9.8C227.6-43.8,229.1-43.5,229.7-42.4z M227.1-42.2l-4.4,2.7l6.8,11l5.4-3.4l-6.2-10C228.4-42.4,227.7-42.6,227.1-42.2z
				 M222.2-14.4l6.6-13.2l-7-11.3l-10.5,6.5c-0.6,0.4-0.8,1.1-0.4,1.7l9.8,15.9C221-14.3,221.7-14.1,222.2-14.4z M238.6-26l-3.1-4.9
				l-5.6,3.5l-6,12l14.2-8.8C238.8-24.6,239-25.4,238.6-26z"/>
			<path d="M81.9-231l-3.7,11.3c-0.3,0.8-1.1,1.2-1.9,0.9l-11.3-3.7c-0.8-0.3-1.2-1.1-0.9-1.9l3.7-11.3c0.3-0.8,1.1-1.2,1.9-0.9
				l11.2,3.7C81.7-232.6,82.2-231.8,81.9-231z M80.8-232.2l-3.1-1l-2.6,7.8l3.8,1.3l2.3-7.1C81.4-231.7,81.2-232.1,80.8-232.2z
				 M65.2-223.3l9.1-2.2l2.7-8l-7.5-2.5c-0.4-0.1-0.9,0.1-1,0.5l-3.7,11.3C64.7-223.8,64.8-223.4,65.2-223.3z M77.5-220l1.2-3.5
				l-4-1.3l-8.3,2l10.1,3.3C77-219.4,77.4-219.6,77.5-220z"/>
			<path d="M216.5-92.6l-0.1,11.9c0,0.8-0.7,1.5-1.5,1.5l-11.9-0.1c-0.8,0-1.5-0.7-1.5-1.5l0.1-11.9c0-0.8,0.7-1.5,1.5-1.5l11.8,0.1
				C215.8-94.1,216.5-93.4,216.5-92.6z M215-93.4l-3.3,0l0,8.2l4,0l0-7.4C215.8-93,215.4-93.4,215-93.4z M202.9-80.1l8-4.9l0-8.5
				l-7.9,0c-0.4,0-0.8,0.3-0.8,0.8l-0.1,11.9C202.3-80.4,202.6-80.1,202.9-80.1z M215.7-80.8l0-3.7l-4.2,0l-7.3,4.4l10.6,0.1
				C215.3-80,215.7-80.3,215.7-80.8z"/>
			<path d="M225.2-137.7l-3.7,11.3c-0.3,0.8-1.1,1.2-1.9,0.9l-11.3-3.7c-0.8-0.3-1.2-1.1-0.9-1.9l3.7-11.3c0.3-0.8,1.1-1.2,1.9-0.9
				l11.3,3.7C225-139.3,225.4-138.5,225.2-137.7z M224-138.9l-3.1-1l-2.6,7.8l3.8,1.3l2.3-7.1C224.6-138.3,224.4-138.8,224-138.9z
				 M208.4-129.9l9.1-2.2l2.7-8l-7.5-2.5c-0.4-0.1-0.9,0.1-1,0.5l-3.7,11.3C207.9-130.5,208.1-130.1,208.4-129.9z M220.8-126.7
				l1.2-3.5l-4-1.3l-8.3,2l10.1,3.3C220.2-126,220.7-126.3,220.8-126.7z"/>
			<path d="M53.2-38.7l-3.7,11.3c-0.3,0.8-1.1,1.2-1.9,0.9l-11.3-3.7c-0.8-0.3-1.2-1.1-0.9-1.9l3.7-11.3c0.3-0.8,1.1-1.2,1.9-0.9
				l11.2,3.7C53-40.3,53.4-39.5,53.2-38.7z M52-39.9l-3.1-1l-2.6,7.8l3.8,1.3l2.3-7.1C52.6-39.3,52.4-39.8,52-39.9z M36.4-30.9
				l9.1-2.2l2.7-8l-7.5-2.5c-0.4-0.1-0.9,0.1-1,0.5L36-31.9C35.9-31.5,36.1-31.1,36.4-30.9z M48.8-27.7l1.2-3.5l-4-1.3l-8.3,2
				l10.1,3.3C48.2-27,48.7-27.3,48.8-27.7z"/>
			<path d="M102.6-229.7l0.9,8.2c0.1,0.6-0.3,1.1-0.9,1.1l-8.2,0.9c-0.6,0.1-1.1-0.3-1.1-0.9l-0.9-8.2c-0.1-0.6,0.3-1.1,0.9-1.1
				l8.2-0.9C102-230.6,102.5-230.2,102.6-229.7z M101.5-230.1l-2.2,0.2l0.6,5.7l2.8-0.3l-0.6-5.1
				C102.1-229.9,101.8-230.1,101.5-230.1z M94.3-219.9l5.1-4l-0.6-5.8l-5.4,0.6c-0.3,0-0.5,0.3-0.5,0.6l0.9,8.2
				C93.8-220.2,94-219.9,94.3-219.9z M103-221.5l-0.3-2.5l-2.9,0.3l-4.6,3.6l7.3-0.8C102.8-220.9,103-221.2,103-221.5z"/>
			<path d="M122.1-158.3l-2.3,7.9c-0.2,0.5-0.7,0.8-1.3,0.7l-7.9-2.3c-0.5-0.2-0.8-0.7-0.7-1.3l2.3-7.9c0.2-0.5,0.7-0.8,1.3-0.7
				l7.9,2.3C122-159.4,122.3-158.8,122.1-158.3z M121.3-159.1l-2.2-0.6l-1.6,5.5l2.7,0.8l1.5-4.9C121.8-158.7,121.6-159,121.3-159.1
				z M110.7-152.6l6.3-1.7l1.7-5.6l-5.2-1.5c-0.3-0.1-0.6,0.1-0.7,0.4l-2.3,7.9C110.4-152.9,110.5-152.7,110.7-152.6z M119.4-150.6
				l0.7-2.5l-2.8-0.8l-5.7,1.6l7.1,2.1C119-150.1,119.3-150.3,119.4-150.6z"/>
			<path d="M213-214.3l2.5,7.8c0.2,0.5-0.1,1.1-0.7,1.3l-7.8,2.5c-0.5,0.2-1.1-0.1-1.3-0.7l-2.5-7.8c-0.2-0.5,0.1-1.1,0.7-1.3
				l7.8-2.5C212.3-215.1,212.9-214.8,213-214.3z M211.9-214.5l-2.1,0.7l1.7,5.4l2.7-0.9l-1.6-4.9
				C212.5-214.4,212.2-214.6,211.9-214.5z M206.8-203.1l4.2-4.9l-1.8-5.6l-5.2,1.7c-0.3,0.1-0.4,0.4-0.4,0.7l2.5,7.8
				C206.3-203.2,206.6-203.1,206.8-203.1z M215.1-206.3l-0.8-2.4l-2.8,0.9l-3.8,4.5l7-2.2C215-205.7,215.2-206,215.1-206.3z"/>
			<path d="M31.1-210.3l-2,6.7c-0.1,0.5-0.6,0.7-1.1,0.6l-6.7-2c-0.5-0.1-0.7-0.6-0.6-1.1l2-6.7c0.1-0.5,0.6-0.7,1.1-0.6l6.7,2
				C31-211.2,31.2-210.7,31.1-210.3z M30.4-211l-1.8-0.5l-1.4,4.7l2.3,0.7l1.2-4.2C30.8-210.6,30.6-210.9,30.4-211z M21.4-205.4
				l5.4-1.5l1.4-4.8l-4.5-1.3c-0.2-0.1-0.5,0.1-0.6,0.3l-2,6.7C21.1-205.7,21.2-205.5,21.4-205.4z M28.7-203.7l0.6-2.1l-2.4-0.7
				l-4.9,1.3l6,1.8C28.4-203.3,28.7-203.4,28.7-203.7z"/>
			<path d="M59.8-217.8l2.8,8.6c0.2,0.6-0.1,1.2-0.7,1.4l-8.6,2.8c-0.6,0.2-1.2-0.1-1.4-0.7l-2.8-8.6c-0.2-0.6,0.1-1.2,0.7-1.4
				l8.6-2.8C59-218.8,59.6-218.4,59.8-217.8z M58.6-218.1l-2.4,0.8l2,6l2.9-1l-1.8-5.4C59.2-218,58.9-218.2,58.6-218.1z M53.1-205.5
				l4.6-5.5l-2-6.1l-5.7,1.9c-0.3,0.1-0.5,0.4-0.4,0.8l2.8,8.6C52.5-205.6,52.8-205.4,53.1-205.5z M62.2-209.1l-0.9-2.7l-3,1l-4.2,5
				l7.7-2.6C62.1-208.4,62.3-208.8,62.2-209.1z"/>
			<path d="M242.5-87.2l2.8,8.6c0.2,0.6-0.1,1.2-0.7,1.4l-8.6,2.8c-0.6,0.2-1.2-0.1-1.4-0.7l-2.8-8.6c-0.2-0.6,0.1-1.2,0.7-1.4
				l8.6-2.8C241.6-88.1,242.3-87.8,242.5-87.2z M241.2-87.4l-2.4,0.8l2,6l2.9-1L242-87C241.9-87.3,241.5-87.5,241.2-87.4z
				 M235.8-74.8l4.6-5.5l-2-6.1l-5.7,1.9c-0.3,0.1-0.5,0.4-0.4,0.8l2.8,8.6C235.2-74.9,235.5-74.7,235.8-74.8z M244.8-78.4l-0.9-2.7
				l-3,1l-4.2,5l7.7-2.6C244.8-77.8,244.9-78.1,244.8-78.4z"/>
			<path d="M84.3-18.2l-8.7,17c-0.6,1.2-2,1.6-3.2,1L55.4-9c-1.2-0.6-1.6-2-1-3.2l8.7-17c0.6-1.2,2-1.6,3.2-1l17,8.7
				C84.4-20.8,84.9-19.4,84.3-18.2z M82.7-20.5l-4.7-2.4L72-11.1l5.8,3l5.5-10.7C83.6-19.4,83.4-20.1,82.7-20.5z M55.8-10.1
				l15.1-1.2l6.2-12.1l-11.3-5.8c-0.6-0.3-1.4-0.1-1.7,0.5l-8.7,17C55.1-11.1,55.2-10.4,55.8-10.1z M74.6-1.8l2.7-5.3l-6-3.1
				L57.7-9.1l15.2,7.8C73.5-0.9,74.3-1.2,74.6-1.8z"/>
			<path d="M20.5-195.6L18.3-181c-0.2,1-1.1,1.7-2.1,1.5l-14.6-2.2c-1-0.2-1.7-1.1-1.5-2.1l2.2-14.6c0.2-1,1.1-1.7,2.1-1.5l14.6,2.2
				C20-197.6,20.7-196.6,20.5-195.6z M18.9-196.9l-4-0.6l-1.5,10.2l5,0.8l1.4-9.2C19.8-196.3,19.4-196.8,18.9-196.9z M1.6-182.6
				l10.8-4.6l1.6-10.5l-9.7-1.5c-0.5-0.1-1,0.3-1.1,0.8l-2.2,14.6C0.8-183.2,1.1-182.7,1.6-182.6z M17.4-181.1l0.7-4.6l-5.1-0.8
				l-9.8,4.2l13.1,2C16.9-180.2,17.4-180.6,17.4-181.1z"/>
			<path d="M110.9-206.8l4.4,21.8c0.3,1.5-0.7,3-2.2,3.3l-21.8,4.4c-1.5,0.3-3-0.7-3.3-2.2l-4.4-21.8c-0.3-1.5,0.7-3,2.2-3.3
				l21.8-4.4C109.1-209.3,110.6-208.3,110.9-206.8z M107.9-207.7l-6,1.2l3,15.1l7.4-1.5l-2.8-13.7
				C109.5-207.4,108.7-207.9,107.9-207.7z M90.9-178.7l12.9-12l-3.1-15.6l-14.5,2.9c-0.8,0.2-1.3,0.9-1.2,1.7l4.4,21.8
				C89.5-179.1,90.1-178.6,90.9-178.7z M114-184.8l-1.4-6.8l-7.7,1.5l-11.7,10.9l19.5-3.9C113.7-183.2,114.2-184,114-184.8z"/>
			<path d="M33-154.3l-4.2,22.7c-0.3,1.6-1.8,2.6-3.3,2.3l-22.7-4.2c-1.6-0.3-2.6-1.8-2.3-3.3l4.2-22.7c0.3-1.6,1.8-2.6,3.3-2.3
				l22.7,4.2C32.3-157.3,33.3-155.8,33-154.3z M30.5-156.3l-6.2-1.1l-2.9,15.8l7.8,1.4l2.6-14.3C31.9-155.3,31.3-156.1,30.5-156.3z
				 M2.8-134.8l17.1-6.7l3-16.2l-15.1-2.8c-0.8-0.2-1.6,0.4-1.8,1.2l-4.2,22.7C1.7-135.7,2.1-135,2.8-134.8z M27.6-131.8l1.3-7.1
				l-8-1.5l-15.5,6.1l20.4,3.7C26.6-130.4,27.4-131,27.6-131.8z"/>
			<path d="M26.8-81.2l12,20.3c0.8,1.4,0.4,3.2-1,4l-20.3,12c-1.4,0.8-3.2,0.4-4-1l-12-20.3c-0.8-1.4-0.4-3.2,1-4l20.3-12
				C24.2-83.1,26-82.6,26.8-81.2z M23.5-81.1l-5.6,3.3l8.3,14.1l6.9-4.1l-7.5-12.8C25.2-81.3,24.2-81.5,23.5-81.1z M16.5-46
				l8.7-16.6l-8.6-14.5l-13.5,8c-0.7,0.4-1,1.4-0.6,2.1l12,20.3C15-45.9,15.8-45.7,16.5-46z M37.6-60.2l-3.7-6.3l-7.2,4.2l-7.9,15
				l18.2-10.7C37.8-58.5,38.1-59.5,37.6-60.2z"/>
			<path d="M179.6-155l2.1,24.9c0.1,1.7-1.1,3.2-2.8,3.4l-24.9,2.1c-1.7,0.1-3.2-1.1-3.4-2.8l-2.1-24.9c-0.1-1.7,1.1-3.2,2.8-3.4
				l24.9-2.1C178-158,179.5-156.7,179.6-155z M176.4-156.4l-6.9,0.6l1.5,17.3l8.5-0.7l-1.3-15.7
				C178.1-155.8,177.3-156.5,176.4-156.4z M153.6-126l15.9-11.9l-1.5-17.8l-16.6,1.4c-0.9,0.1-1.6,0.9-1.5,1.8l2.1,24.9
				C152.1-126.7,152.8-126,153.6-126z M180.3-129.9l-0.7-7.8l-8.8,0.8l-14.4,10.7l22.4-1.9C179.7-128.2,180.4-129,180.3-129.9z"/>
			<path d="M148.9-183.3l-2.6,17.8c-0.2,1.2-1.3,2.1-2.5,1.9l-17.9-2.6c-1.2-0.2-2.1-1.3-1.9-2.5l2.6-17.8c0.2-1.2,1.3-2.1,2.5-1.9
				l17.8,2.6C148.2-185.7,149.1-184.5,148.9-183.3z M146.8-184.8l-4.9-0.7l-1.8,12.4l6.1,0.9l1.7-11.2
				C148-184.1,147.5-184.7,146.8-184.8z M125.9-167.2l13.1-5.7l1.9-12.8l-11.9-1.7c-0.7-0.1-1.3,0.4-1.4,1l-2.6,17.8
				C124.9-168,125.3-167.4,125.9-167.2z M145.2-165.6l0.8-5.6l-6.3-0.9l-11.9,5.1l16,2.4C144.5-164.5,145.1-164.9,145.2-165.6z"/>
			<path d="M221.4-245.1l1.4,14.7c0.1,1-0.7,1.9-1.7,2l-14.7,1.4c-1,0.1-1.9-0.7-2-1.7l-1.3-14.7c-0.1-1,0.6-1.9,1.7-2l14.7-1.4
				C220.4-246.9,221.3-246.1,221.4-245.1z M219.5-245.9l-4,0.4l0.9,10.2l5-0.5l-0.8-9.2C220.5-245.6,220-246,219.5-245.9z
				 M206.2-228l9.3-7l-1-10.5l-9.8,0.9c-0.5,0-0.9,0.5-0.9,1.1l1.4,14.7C205.3-228.4,205.7-228,206.2-228z M221.9-230.4l-0.4-4.6
				l-5.2,0.5l-8.5,6.4l13.2-1.2C221.6-229.4,222-229.8,221.9-230.4z"/>
		</g>
		<g>
			<path d="M197.9-284.4l-0.3,26.3c0,1.8-1.5,3.2-3.3,3.2l-26.3-0.3c-1.8,0-3.2-1.5-3.2-3.3l0.3-26.2c0-1.8,1.5-3.2,3.3-3.2
				l26.3,0.3C196.5-287.7,197.9-286.2,197.9-284.4z M194.7-286.2l-7.2-0.1l-0.2,18.2l9,0.1l0.2-16.5
				C196.4-285.4,195.6-286.2,194.7-286.2z M167.9-256.8l17.8-10.8l0.2-18.8l-17.5-0.2c-1,0-1.8,0.8-1.8,1.7l-0.3,26.2
				C166.4-257.6,167-256.9,167.9-256.8z M196.1-258.2l0.1-8.2l-9.2-0.1l-16.2,9.8l23.5,0.2C195.3-256.5,196.1-257.2,196.1-258.2z"/>
			<path d="M119.5-289.3l10.4,21.1c0.7,1.4,0.1,3.2-1.3,3.9l-21.1,10.4c-1.5,0.7-3.2,0.1-3.9-1.3l-10.4-21.1
				c-0.7-1.4-0.1-3.2,1.3-3.9l21.1-10.4C117-291.3,118.8-290.8,119.5-289.3z M116.2-289.4l-5.8,2.9l7.2,14.7l7.2-3.6l-6.5-13.3
				C117.9-289.5,116.9-289.8,116.2-289.4z M106.6-255l9.9-15.9l-7.4-15.1L95-279c-0.8,0.4-1.1,1.3-0.7,2.1l10.4,21.1
				C105.1-255,105.9-254.7,106.6-255z M128.7-267.6l-3.3-6.6l-7.4,3.7l-9,14.4l19-9.3C128.7-265.8,129.1-266.8,128.7-267.6z"/>
			<path d="M154.5-273.2l0.2,9.7c0,0.7-0.5,1.2-1.2,1.2l-9.7,0.2c-0.7,0-1.2-0.5-1.2-1.2l-0.2-9.7c0-0.7,0.5-1.2,1.2-1.2l9.7-0.2
				C154-274.4,154.5-273.9,154.5-273.2z M153.3-273.8l-2.7,0.1l0.1,6.7l3.3-0.1l-0.1-6.1C154-273.6,153.7-273.8,153.3-273.8z
				 M143.8-262.7l6.4-4.2l-0.1-6.9l-6.4,0.1c-0.4,0-0.6,0.3-0.6,0.7l0.2,9.7C143.2-263,143.5-262.7,143.8-262.7z M154.2-263.6
				l-0.1-3l-3.4,0.1l-5.8,3.8l8.7-0.2C153.9-262.9,154.2-263.2,154.2-263.6z"/>
			<path d="M229.7-282.4l9.8,15.9c0.7,1.1,0.3,2.5-0.7,3.2l-15.9,9.8c-1.1,0.7-2.5,0.3-3.2-0.7l-9.8-15.9c-0.7-1.1-0.3-2.5,0.8-3.2
				l15.8-9.8C227.6-283.8,229.1-283.5,229.7-282.4z M227.1-282.2l-4.4,2.7l6.8,11l5.4-3.4l-6.2-10
				C228.4-282.4,227.7-282.6,227.1-282.2z M222.2-254.4l6.6-13.2l-7-11.3l-10.5,6.5c-0.6,0.4-0.8,1.1-0.4,1.7l9.8,15.9
				C221-254.3,221.7-254.1,222.2-254.4z M238.6-266l-3.1-4.9l-5.6,3.5l-6,12l14.2-8.8C238.8-264.6,239-265.4,238.6-266z"/>
			<path d="M84.3-258.2l-8.7,17c-0.6,1.2-2,1.6-3.2,1l-17-8.7c-1.2-0.6-1.6-2-1-3.2l8.7-17c0.6-1.2,2-1.6,3.2-1l17,8.7
				C84.4-260.8,84.9-259.4,84.3-258.2z M82.7-260.5l-4.7-2.4L72-251.1l5.8,3l5.5-10.7C83.6-259.4,83.4-260.1,82.7-260.5z
				 M55.8-250.1l15.1-1.2l6.2-12.1l-11.3-5.8c-0.6-0.3-1.4-0.1-1.7,0.5l-8.7,17C55.1-251.1,55.2-250.4,55.8-250.1z M74.6-241.8
				l2.7-5.3l-6-3.1l-13.7,1.1l15.2,7.8C73.5-240.9,74.3-241.2,74.6-241.8z"/>
		</g>
	</g>
</pattern>
<rect class="st0" width="240" height="240"/>
<g>
</g>
<g>
</g>
<g>
</g>
<g>
</g>
<g>
</g>
<g>
</g>
<g>
</g>
<g>
</g>
<g>
</g>
<g>
</g>
<g>
</g>
<g>
</g>
<g>
</g>
<g>
</g>
<g>
</g>
</svg>
