<svg xmlns="http://www.w3.org/2000/svg" version="1.1" x="0" y="0" width="100" height="100" viewBox="0 0 100 100" xml:space="preserve"><style type="text/css">
	.st0{fill:#472E1C;}
	.st1{fill:#AFAFAF;}
	.st2{fill:#B0AA94;}
	.st3{fill:#B2CE7A;}
	.st4{fill:#EAEAEA;}
	.st5{opacity:0.33;fill:#55502A;enable-background:new    ;}
	.st6{fill:#B8B8B8;}
	.st7{fill:#EF8674;}
	.st8{opacity:0.28;fill:#59532C;enable-background:new    ;}
	.st9{fill:#604F24;}
	.st10{opacity:0.21;fill:#55502A;enable-background:new    ;}
	.st11{fill:#CECECE;}
	.st12{fill:#DBED7B;}
	.st13{opacity:0.4;fill:#48453C;enable-background:new    ;}
	.st14{fill:#443617;}
</style><rect x="16.9" y="69.5" class="st0" width="3" height="11.4"/><polygon class="st3" points="18 33.5 25 72.7 11.9 72.7 "/><polygon class="st12" points="18 33.5 18 72.7 25 72.7 "/><polygon class="st4" points="56.1 51.5 29.7 51.5 29.7 81.1 56.1 81.1 80.4 81.1 80.4 51.5 "/><polygon class="st10" points="56.6 56.3 40.8 81.1 56.6 81.1 "/><rect x="29.7" y="78.5" class="st6" width="50.7" height="2.5"/><rect x="56.1" y="77.6" class="st6" width="24.4" height="3.5"/><polygon class="st13" points="50.9 55.8 29.7 55.8 29.7 51.5 52.4 51.5 "/><polygon class="st4" points="82.4 51.5 28.4 51.5 33.5 36.8 74.9 36.8 "/><rect x="52.9" y="28.3" class="st4" width="4.6" height="8.4"/><polygon class="st5" points="52.9 36.5 52.9 36.8 57.4 36.8 57.4 31.7 "/><polygon class="st1" points="47.1 48.5 38.2 48.5 38.2 41 42.7 35.8 47.1 41 "/><polygon class="st5" points="50.9 36.8 60.3 36.8 51.7 51.7 42.5 51.7 "/><polygon class="st7" points="49.1 42.1 42.7 35.8 42.6 35.8 42.6 35.8 36.2 42.1 36.8 42.7 42.6 36.9 48.5 42.7 "/><rect x="41.7" y="41.4" class="st11" width="2.5" height="2.5"/><rect x="41.7" y="44.5" class="st11" width="2.5" height="2.5"/><polygon class="st8" points="50 53.5 47.6 58.8 80.5 58.8 80.5 53.5 "/><polygon class="st7" points="88.5 56.1 67.9 19.8 51.5 51.5 29.7 51.5 29.7 52.6 50.9 52.6 51 52.5 49.1 56.3 "/><polygon class="st4" points="68 23.9 86 56.3 51.4 56.3 "/><rect x="66.5" y="42.1" class="st2" width="3.8" height="3.6"/><rect x="66.5" y="46.8" class="st2" width="3.8" height="3.6"/><rect x="65.8" y="62.1" class="st2" width="4.5" height="6"/><rect x="65.8" y="69.9" class="st2" width="4.5" height="6"/><rect x="35.3" y="64.4" class="st2" width="4.4" height="4.7"/><rect x="35.3" y="70.4" class="st2" width="4.4" height="4.7"/><path class="st9" d="M53.8 81.1H45v-8.8c0-2.3 1.9-4.2 4.2-4.2h0.3c2.3 0 4.2 1.9 4.2 4.2V81.1z"/><path class="st14" d="M49.6 68.1h-0.3v13h4.5v-8.8C53.8 69.9 51.9 68.1 49.6 68.1z"/></svg>