<svg xmlns="http://www.w3.org/2000/svg" version="1.1" x="0" y="0" width="100" height="100" viewBox="0 0 100 100" enable-background="new 0 0 100 100" xml:space="preserve"><path fill="#DFABA5" d="M38.5 40L36 36.7l-10 2.7 -4.2 8 1.4 13.4 1.64 5.58 8.18 1.22c0.06-1.71 0.18-3.07 0.68-3.2 1.7-0.5 3.3-1.6 4.2-4.1C40 54.2 38.5 40 38.5 40z"/><path fill="#131318" d="M63.3 60.9L24.5 61l-0.1-48.1c0-0.7 0.6-1.3 1.3-1.3H62c0.7 0 1.3 0.6 1.3 1.3V60.9z"/><rect x="28.3" y="15.4" transform="matrix(-1 0.0015 -0.0015 -1 87.7522 71.1355)" fill="#DBDBDB" width="31.1" height="40.4"/><circle fill="#808080" cx="43.9" cy="58.2" r="1.4"/><rect x="31.8" y="29" transform="matrix(-0.0014 -1 1 -0.0014 1.6525 71.9504)" fill="#BFBFBF" width="9.9" height="12.3"/><rect x="45.2" y="30.3" fill="#BFBFBF" width="12.5" height="0.4"/><rect x="45.2" y="32.1" fill="#BFBFBF" width="12.5" height="0.4"/><rect x="46.3" y="33.9" transform="matrix(-1 0.0014 -0.0014 -1 102.8492 68.1263)" fill="#BFBFBF" width="10.2" height="0.4"/><rect x="47" y="35.7" transform="matrix(-1 0.0015 -0.0015 -1 102.954 71.7236)" fill="#BFBFBF" width="8.9" height="0.4"/><rect x="47" y="37.5" transform="matrix(-1 0.0014 -0.0014 -1 102.9525 75.3298)" fill="#BFBFBF" width="8.9" height="0.4"/><path fill="#FFFFFF" d="M32.4 32.1v6.2h8.5v-6.2H32.4zM32.8 32.6h7.7v5.2h-0.2L38.9 36l-1.1 1.4L35.9 35l-2.2 2.8h0.6 -1.4L32.8 32.6z"/><circle fill="#FFFFFF" cx="34" cy="34.3" r="0.6"/><rect x="49" y="39" transform="matrix(-1 0.0014 -0.0014 -1 103.0545 79.0297)" fill="#73BFAF" width="5" height="1.1"/><path fill="#BFBFBF" d="M32.8 46.7l0.1 5.1h0.8l2.2-2.8 1.9 2.4 1.1-1.4 1.4 1.9h0.2v-5.2H32.8zM34 49c-0.33 0-0.6-0.27-0.6-0.6 0-0.33 0.27-0.6 0.6-0.6s0.6 0.27 0.6 0.6C34.6 48.73 34.33 49 34 49z"/><path fill="#BFBFBF" d="M30.59 44.31l0.01 9.9 12.3-0.02 -0.01-9.9L30.59 44.31zM40.9 52.4h-8.5v-6.2h8.5V52.4z"/><rect x="45.2" y="44.4" fill="#BFBFBF" width="12.5" height="0.4"/><rect x="45.2" y="46.2" fill="#BFBFBF" width="12.5" height="0.4"/><rect x="46.3" y="48" transform="matrix(-1 0.0014 -0.0014 -1 102.8695 96.326)" fill="#BFBFBF" width="10.2" height="0.4"/><rect x="47" y="49.8" transform="matrix(-1 0.0015 -0.0015 -1 102.9749 99.9237)" fill="#BFBFBF" width="8.9" height="0.4"/><rect x="47" y="51.6" transform="matrix(-1 0.0013 -0.0013 -1 102.969 103.5318)" fill="#BFBFBF" width="8.9" height="0.4"/><rect x="49" y="53" transform="matrix(-1 0.0012 -0.0012 -1 103.0622 107.0402)" fill="#73BFAF" width="5" height="1.1"/><polygon fill="#BFBFBF" points="35.8 20.9 37.7 23.3 38.8 21.9 40.3 23.7 40.5 23.7 40.5 18.5 32.8 18.5 32.8 23.7 33.6 23.7 "/><path fill="#BFBFBF" d="M42.89 16.19l-12.3 0.02 0.01 9.9 12.3-0.02L42.89 16.19zM40.9 24.2h-8.5V18h8.5V24.2z"/><circle fill="#FFFFFF" cx="34" cy="20.3" r="0.6"/><rect x="47" y="21.7" transform="matrix(-1 0.0015 -0.0015 -1 102.9328 43.7236)" fill="#BFBFBF" width="8.9" height="0.4"/><rect x="47" y="23.5" transform="matrix(-1 0.0013 -0.0013 -1 102.9315 47.3321)" fill="#BFBFBF" width="8.9" height="0.4"/><rect x="49" y="24.9" transform="matrix(-1 0.0014 -0.0014 -1 103.0352 50.8295)" fill="#73BFAF" width="5" height="1.1"/><circle opacity="0.23" fill="#F8F8F8" enable-background="new    " cx="45" cy="36.7" r="4.9"/><circle opacity="0.49" fill="#F8F8F8" enable-background="new    " cx="45" cy="36.7" r="2.2"/><path opacity="0.39" fill="#131318" enable-background="new    " d="M46.9 38.1c2 7.8 3 14.3 6.5 20.6l4.9 3.7 2.9-1.7L46.9 38.1z"/><path fill="#1D949B" d="M81.2 67.3l-14.7 7.9 1 8.3c0 0 11.9-5.6 15.4-11.4L81.2 67.3z"/><circle fill="#F8F8F8" cx="78.1" cy="71.7" r="1.8"/><circle fill="#808080" cx="43.4" cy="13.6" r="0.5"/><path fill="#131318" d="M28.9 39.3"/><path fill="#DFABA5" d="M21.64 65.9l7.83 1.17L30.6 59.1c0 0 1.2-8.9-6.1-11.4 -0.1-0.9-0.6-3 1.3-3.8 1.9-0.8 4.9-4.7 2.1-6.4 -2.8-1.7-9.4 3-10.1 9.6C17 53.7 18.9 59.4 21 63.9 21.29 64.5 21.49 65.18 21.64 65.9z"/><path fill="#EF7F69" d="M18.8 67.2L17 81.1c6.1 3.9 12 5.7 19.4 6.9l0.9-18.5L18.8 67.2zM34.9 76.5c-0.99 0-1.8-0.81-1.8-1.8s0.81-1.8 1.8-1.8 1.8 0.81 1.8 1.8S35.89 76.5 34.9 76.5z"/><polygon opacity="0.28" fill="#131318" enable-background="new    " points="33.02 67.6 33.08 66.2 27.86 66.83 "/><path fill="#DFABA5" d="M78.19 66.84c0 0 0.02-0.46 0.01-0.64 -0.3-3.7 1.1-12.4-5.9-16.6 -0.4-0.3-0.7-0.7-1.4-0.7C70.3 49 69.8 48.2 69.2 48.2c-7.4-0.6-10.8 2.1-10.8 2.1 -2.1-3.4-7.7-12.8-7.7-12.8 -1.7-1.8-4.7-0.2-3.6 2.3 0 0 9.9 18.4 10.6 19.4 0.8 1.2-0.5 0.8-0.7 0.5 -0.2-0.4-3.2-7.5-8.1-6 -0.8 0.6-1 1.1-0.4 2.2 0 0 3.9 5.1 4.5 6.6 0.5 1.5 2 6.9 9.8 8.3 2.36 0.44 4.11 1.69 5.41 3.22l5.89-4.24C75.95 68.42 76.78 67.84 78.19 66.84zM77.9 64.4c-0.54 1.73-1.93 3.54-3.8 5.38l4.09-2.94C77.96 65.52 77.9 64.4 77.9 64.4zM77.9 64.4c-0.54 1.73-1.93 3.54-3.8 5.38l4.09-2.94C77.96 65.52 77.9 64.4 77.9 64.4z"/><rect x="28.3" y="15.4" fill="#542437" width="31.1" height="5.6"/></svg>