<svg xmlns="http://www.w3.org/2000/svg" version="1.1" x="0" y="0" width="105.1" height="31.8" viewBox="0 0 105.1 31.8" xml:space="preserve"><style type="text/css">
	.st0{fill-rule:evenodd;clip-rule:evenodd;fill:#542437;}
	.st1{fill:#FFFFFF;}
	.st2{fill-rule:evenodd;clip-rule:evenodd;fill:#F28A29;}
	.st3{fill-rule:evenodd;clip-rule:evenodd;fill:#00A69C;}
</style><path class="st3" d="M31.1 20.8V3.2c0-1.3-1.1-2.4-2.4-2.4H19l0.1 20.1H31.1z"/><path class="st0" d="M31.1 20v9c0 1.2-1.1 2.1-2.4 2.1H3.1C5.7 29.3 20.3 20 20.3 20H31.1L31.1 20z"/><path class="st2" d="M2.5 30.9l-1.8-2.2 0-25.6c0-1.3 1.1-2.4 2.4-2.4l0 0h17.7V20"/><path class="st1" d="M28.7 0H3.2C1.4 0 0 1.4 0 3.2v25.5c0 1.7 1.4 3.2 3.2 3.2h25.5c1.7 0 3.2-1.4 3.2-3.2V3.2C31.8 1.4 30.4 0 28.7 0zM30.4 3.2v16h-8.7V1.5h7C29.6 1.5 30.4 2.2 30.4 3.2zM1.5 28.7V3.2c0-0.9 0.8-1.7 1.7-1.7h17v18.2L2.9 30.3C2.1 30.2 1.5 29.5 1.5 28.7zM28.7 30.4H5.8l15.6-9.6h9v8C30.4 29.6 29.6 30.4 28.7 30.4z"/><path class="st1" d="M50.7 6.6c-2 0-3.9 0.4-5.2 0.8v1.8c0.8-0.3 2.8-0.8 5.1-0.8 4.1 0 5.9 1.9 5.9 5.6 -0.6-0.1-1.9-0.4-4.3-0.4 -1.7 0-8.6 0.2-8.6 5.8 0 4.8 5.1 5.6 7.4 5.6 2.3 0 7.2-0.6 7.2-5.5v-5.5C58.3 9.2 56 6.6 50.7 6.6L50.7 6.6zM56.5 19.6c0 3.2-3.2 3.8-5.4 3.8 -2.2 0-5.6-0.6-5.6-3.9 0-3.6 4.3-4.1 6.5-4.1 2.4 0 4.1 0.3 4.5 0.3V19.6L56.5 19.6z"/><polygon class="st1" points="65.5 24.8 65.5 0 63.6 0 63.6 24.8 65.5 24.8 "/><path class="st1" d="M84 17.5c0 3.9-1.9 5.9-5.6 5.9 -3.8 0-5.6-2-5.6-5.9V6.9h-1.8v10.5c0 4.9 2.7 7.7 7.4 7.7 4.7 0 7.4-2.7 7.4-7.7V6.9H84V17.5L84 17.5z"/><path class="st1" d="M98.1 6.6c-3 0-7.7 1.2-7.7 9.1 0 7.4 4.4 8.8 8 8.8 1.7 0 3.4-0.3 5-0.9v2.2c0 2.1-0.8 4.3-6.2 4.3 -1.9 0-3.5-0.3-4.7-0.6v1.7c1.3 0.3 3 0.6 4.9 0.6 6.5 0 7.7-3.2 7.7-6.1V12C105.1 10.7 104.6 6.6 98.1 6.6L98.1 6.6zM103.3 21.7c-1.6 0.7-3.2 1.1-5 1.1 -2.9 0-6.1-0.9-6.1-7.1 0-6.6 3.5-7.4 5.9-7.4 3.9 0 5.2 1.9 5.2 3.7V21.7L103.3 21.7z"/></svg>