<svg xmlns="http://www.w3.org/2000/svg" version="1.1" x="0" y="0" width="32" height="32" viewBox="0 0 32 32" xml:space="preserve"><style type="text/css">
	.st0{fill-rule:evenodd;clip-rule:evenodd;fill:#542437;}
	.st1{fill:#FFFFFF;}
	.st2{fill-rule:evenodd;clip-rule:evenodd;fill:#F28A29;}
	.st3{fill-rule:evenodd;clip-rule:evenodd;fill:#00A69C;}
</style><path class="st3" d="M31.1 20.8V3.2c0-1.3-1.1-2.4-2.4-2.4H19l0.1 20.1H31.1z"/><path class="st0" d="M31.1 20v9c0 1.2-1.1 2.1-2.4 2.1H3.1C5.7 29.3 20.3 20 20.3 20H31.1L31.1 20z"/><path class="st2" d="M2.5 30.9l-1.8-2.2 0-25.6c0-1.3 1.1-2.4 2.4-2.4l0 0h17.7V20"/><path class="st1" d="M28.7 0H3.2C1.4 0 0 1.4 0 3.2v25.5c0 1.7 1.4 3.2 3.2 3.2h25.5c1.7 0 3.2-1.4 3.2-3.2V3.2C31.8 1.4 30.4 0 28.7 0zM30.4 3.2v16h-8.7V1.5h7C29.6 1.5 30.4 2.2 30.4 3.2zM1.5 28.7V3.2c0-0.9 0.8-1.7 1.7-1.7h17v18.2L2.9 30.3C2.1 30.2 1.5 29.5 1.5 28.7zM28.7 30.4H5.8l15.6-9.6h9v8C30.4 29.6 29.6 30.4 28.7 30.4z"/></svg>