<svg xmlns="http://www.w3.org/2000/svg" version="1.1" x="0" y="0" width="201.2" height="56.7" viewBox="0 0 201.2 56.7" xml:space="preserve"><style type="text/css">
	.st0{fill:#FEFEFE;}
	.st1{fill:#058E7C;}
	.st2{fill-rule:evenodd;clip-rule:evenodd;fill:#058E7C;}
</style><path class="st2" d="M3.6 0h49.6c2 0 3.6 1.6 3.6 3.6v49.6c0 2-1.6 3.6-3.6 3.6H40.3c0.2-13.9-1.8-21.6-6.5-18.9 -5.2 4-10.3 8.1-15 12.4 3.7-1 7.1 1.2 9.9 6.5H8.4c11.3-11.9 25.9-22.4 40.2-32 0.9-0.6 1.1-0.8 1.4-1 0.3-0.2-0.9-2.6-2.7-5.7 -1.2-2.2-2.6-4.6-4.4-7.1 -1.6-2.5-3-4.4-3.4-4.7C36.5 3.6 17.8 6.7 0 18.9V3.6C0 1.6 1.6 0 3.6 0L3.6 0zM0 41.3V24.1c8.3-4.4 15.9-6.9 22.9-7.8C13.3 23.4 5.7 31.6 0 41.3L0 41.3z"/><path class="st1" d="M168.4 18.5c0.3-1.9-1-3.4-2.9-3.4 -1.8 0-3.7 1.5-4 3.4 -0.2 1.9 1 3.4 2.9 3.4S168.1 20.4 168.4 18.5L168.4 18.5z"/><path class="st0" d="M201 26.4c-0.4-0.3-0.9 0-1.6 0.7 -0.9 1-2.1 1.7-3.6 2.1 -1.3 0.4-2.5 0.5-3.4 0.5 1.8-4.5 3-8.6 3.7-10.6 0-0.2 0.1-0.3 0.2-0.4 1.6-3.7-4.7-3.7-7.1 3.7 -0.7 2.2-0.5 5.7 0.7 8.3C186.5 39 182 45.9 178 44.2c-2.2-1-0.1-7.1 2-12.6 1.1-2.7 2.3-7.3 2.4-10 0.2-4.1-0.6-3.7-3-3.4 -0.7 0.1-4.1 0.7-4.1 0.7 2.2 0.6 1.3 7-0.2 10.3l-1.6 3.4 0 0c-2.1 4.2-4.6 8.5-7 11 -0.9 0.8-2.5 1.7-3.7 1.6 -2.3-0.2-2.5-2.5-1.7-5.2 0.2-0.6 1-2.4 1-2.4l4.6-10.8c0.9-2 0.9-3-1.7-2.9l-4.6 0.1c0.3 0.4 1.4 1.9 0.8 3.5l-2 5.5c-2.1 4.1-4.6 8.4-8 10.9 -2.7 2-7.5-0.6-3.9-10.8l9.1-22.6c0.8-2-4.6 0.4-5.3 1.9l-8.3 19.6c-0.1 0.4-0.3 0.7-0.4 1.1 -2.3 4.5-6.8 12.2-9.8 12 -1.1 0-1.5-1.6-0.8-5 1-5.1 6-14 7.7-15.7 -1.2 0.2-2.4-0.3-3.5-0.3 -2.7-0.2-3.8 2-5.6 5.5 -2.1 4.1-4.5 8.1-7.4 11.6 -3.9 4.6-8.5 5.3-7.6-0.5 0.5-3.2 2.7-7.2 3.4-8.4 3-4.9 7.3-9.8 11-11.9 3.1-1.7 6.1-1 7.1 2.1 1.4 0.2 2.1-1.2 0.9-2.4 -4.7-5.1-14.3-2.1-19.2 3.8 -3.3 4-5.3 7.9-6.3 11.4 -2.4 4.7-6.3 10.4-11.9 10.4 -5.5 0-4.1-8.4-2.8-11.4 2.2 0 7.6-1.7 10.2-3.7 5.3-4.1 7.7-9.7 4.6-12.1 -3.7-2.7-10 0.4-14.2 5.4 -2.3 2.7-4.3 6.2-5.4 9.6 -2.3 4.5-6.3 11.5-9.1 11.4 -5-0.2 3.5-15.4 4.7-18 1-2.1 2.3-5.2 1.7-6.4 -4.1 0.4-8.4 0.5-11.4 0.3 1.4-1 4.1-3.2 4.6-5.6 1.2-5.6-4.2-7.6-5.1-3 -1.7 9.3-6.2 21.8-12.8 30.4 -0.5 0.7 0 1.7 0.7 1.1 4.1-3.9 8-13.1 10-18.3l1-2.7c4.6 0.1 7.5 1.2 6.4 3.9 -0.9 2.1-3.9 6.4-5.1 9.8 -3.3 8.6 1.7 11.1 4.6 10.5 3.5-0.9 6.5-4.9 8.9-8.9 0 0.5-0.1 0.9-0.1 1.4 0.1 5.2 3.8 8 8 8 5.7 0 9.3-3.6 11.9-7.8 -0.3 7 4.4 10.4 10.3 4.8 2.4-2.3 4.6-5.6 6-7.8 -2.5 8.7 1.4 10.9 4.1 10.7 3.5-0.3 7-5.2 9.6-9.8 0 0.4-0.1 0.8-0.1 1.1 -1.2 9.1 7 10.5 11.4 6.2 1.7-1.7 2.9-3.1 4.2-5.3 -0.5 3.8 0.5 7.6 5.3 7.6 5.9 0 10.5-9.7 12.7-14.6 -2.3 6.4-4.3 13.7 0.6 14.7 7 1.4 12.3-7.1 15.8-15.2 0.7 0.1 1.5 0.1 2.3 0 0.9-0.1 1.8-0.3 2.6-0.6s1.7-0.8 2.4-1.3c0.8-0.5 1.4-1.1 1.8-1.8C201.3 27.3 201.3 26.7 201 26.4zM103.1 24.9c10.2-12.4 10.6-1.6 3.8 4.1 -3 2.5-7.3 3.7-8.8 3.7C98.8 31.2 100.9 27.5 103.1 24.9z"/><path class="st0" d="M142.6 17.7c-0.3 0-0.5-0.1-0.6-0.4 -0.1-0.3 0-0.6 0.1-0.9 0.1-0.3 0.3-0.6 0.6-0.9 0.3-0.3 0.6-0.4 0.9-0.4h17.3c0 0-0.4 0.3-1 1.3 -0.2 0.3-0.3 0.6-0.6 0.9 -0.3 0.3-0.6 0.4-0.9 0.4H142.6L142.6 17.7z"/></svg>