<svg xmlns="http://www.w3.org/2000/svg" width="136" height="37.75" viewBox="65.197 9.65 136 37.75"><g fill="#FEFEFE"><path d="M164.4 21.9c1.9 0 3.7-1.5 4-3.4s-1-3.4-2.9-3.4c-1.8 0-3.7 1.5-4 3.4-.2 1.9 1 3.4 2.9 3.4z"/><path d="M201 26.4c-.4-.3-.9 0-1.6.7-.9 1-2.102 1.7-3.602 2.1-1.3.4-2.5.5-3.4.5 1.8-4.5 3-8.6 3.7-10.6 0-.2.1-.3.2-.4 1.6-3.7-4.7-3.7-7.1 3.7-.7 2.2-.5 5.7.7 8.3C186.5 39 182 45.9 178 44.2c-2.2-1-.1-7.1 2-12.6 1.1-2.7 2.3-7.3 2.4-10 .2-4.1-.602-3.7-3-3.4-.7.1-4.102.7-4.102.7 2.2.6 1.3 7-.2 10.3l-1.6 3.4c-2.1 4.2-4.6 8.5-7 11-.9.8-2.5 1.7-3.7 1.6-2.298-.2-2.5-2.5-1.698-5.2.2-.6 1-2.4 1-2.4l4.6-10.8c.9-2 .9-3-1.7-2.9l-4.6.1c.3.4 1.4 1.9.8 3.5l-2 5.5c-2.1 4.1-4.6 8.4-8 10.9-2.7 2-7.5-.602-3.9-10.8l6.2-15.4h4.9c.3 0 .6-.1.9-.4.3-.3.4-.6.6-.9.6-1 1-1.3 1-1.3h-6.353l1.853-4.6c.8-2-4.6.4-5.3 1.9l-1.144 2.7H143.6c-.3 0-.6.1-.9.4-.3.3-.5.6-.6.9-.1.3-.2.6-.1.9.1.3.3.4.6.4h6.256L142.8 32c-.1.4-.3.7-.4 1.1-2.3 4.5-6.8 12.2-9.8 12-1.1 0-1.5-1.6-.8-5 1-5.1 6-14 7.7-15.7-1.2.2-2.4-.3-3.5-.3-2.7-.2-3.8 2-5.6 5.5-2.102 4.1-4.5 8.1-7.4 11.6-3.9 4.6-8.5 5.3-7.6-.5.5-3.2 2.7-7.2 3.398-8.4 3-4.9 7.3-9.8 11-11.9 3.1-1.7 6.1-1 7.1 2.1 1.4.2 2.102-1.2.9-2.4C133.1 15 123.5 18 118.6 23.9c-3.3 4-5.3 7.9-6.3 11.4-2.4 4.7-6.3 10.4-11.9 10.4-5.5 0-4.1-8.4-2.8-11.4 2.2 0 7.6-1.7 10.2-3.7 5.3-4.1 7.7-9.7 4.6-12.1-3.7-2.7-10 .4-14.2 5.4-2.3 2.7-4.3 6.2-5.4 9.602C90.5 38 86.5 45 83.7 44.9c-5-.2 3.5-15.4 4.7-18 1-2.1 2.3-5.2 1.7-6.4-4.1.4-8.4.5-11.4.3 1.4-1 4.1-3.2 4.6-5.6 1.2-5.6-4.2-7.6-5.1-3C76.5 21.5 72 34 65.4 42.6c-.5.7 0 1.7.7 1.1 4.1-3.9 8-13.1 10-18.3l1-2.7c4.6.1 7.5 1.2 6.4 3.9-.9 2.1-3.9 6.4-5.1 9.8-3.3 8.6 1.7 11.1 4.6 10.5 3.5-.9 6.5-4.9 8.9-8.9 0 .5-.1.9-.1 1.4.1 5.2 3.8 8 8 8 5.7 0 9.3-3.602 11.9-7.8-.3 7 4.4 10.4 10.3 4.8 2.4-2.3 4.6-5.602 6-7.8-2.5 8.698 1.4 10.9 4.1 10.698 3.5-.3 7-5.2 9.6-9.8 0 .4-.1.8-.1 1.1-1.2 9.1 7 10.5 11.4 6.2 1.7-1.698 2.9-3.098 4.2-5.298-.5 3.8.5 7.6 5.3 7.6 5.9 0 10.5-9.7 12.7-14.6-2.3 6.4-4.3 13.7.6 14.7 7 1.4 12.3-7.1 15.8-15.2.7.1 1.5.1 2.3 0 .9-.1 1.8-.3 2.602-.6.8-.3 1.7-.8 2.4-1.3.8-.5 1.398-1.1 1.8-1.8.597-1 .597-1.6.298-1.9zm-97.9-1.5c10.2-12.4 10.6-1.6 3.8 4.1-3 2.5-7.3 3.7-8.8 3.7.7-1.5 2.8-5.2 5-7.8z"/></g></svg>