<?xml version="1.0" standalone="no"?>
<!DOCTYPE svg PUBLIC "-//W3C//DTD SVG 20010904//EN"
 "http://www.w3.org/TR/2001/REC-SVG-20010904/DTD/svg10.dtd">
<svg version="1.0" xmlns="http://www.w3.org/2000/svg"
 width="260.000000pt" height="260.000000pt" viewBox="0 0 260.000000 260.000000"
 preserveAspectRatio="xMidYMid meet">
<metadata>
Created by potrace 1.11, written by Peter Selinger 2001-2013
</metadata>
<g transform="translate(0.000000,260.000000) scale(0.100000,-0.100000)"
fill="#000000" stroke="none">
<path d="M97 2576 c-28 -15 -49 -36 -64 -67 -23 -44 -23 -46 -21 -406 l3 -362
95 61 c332 213 762 406 1080 484 8 2 33 8 55 14 22 5 56 12 75 16 19 3 42 7
50 9 45 13 177 26 260 26 110 0 173 -18 209 -59 41 -46 244 -361 321 -497 110
-195 143 -267 127 -281 -6 -6 -97 -69 -202 -140 -484 -326 -937 -667 -1225
-920 -194 -171 -460 -424 -460 -438 0 -3 206 -5 459 -5 l459 1 -11 27 c-17 47
-120 174 -172 213 -60 46 -138 71 -207 66 l-50 -3 53 48 c167 151 582 487 637
516 115 61 212 -50 248 -284 4 -27 9 -57 10 -65 2 -8 6 -53 10 -100 3 -47 8
-98 9 -115 2 -16 4 -92 4 -167 l1 -138 318 3 c354 2 353 2 402 75 l25 36 0
1181 0 1181 -25 36 c-13 20 -38 44 -55 55 -29 17 -82 18 -1203 19 l-1173 2
-42 -22z"/>
<path d="M925 1834 c-38 -8 -81 -17 -95 -20 -176 -36 -454 -137 -688 -250
l-132 -64 0 -392 0 -392 47 75 c156 245 313 440 528 654 157 158 264 253 398
354 61 46 65 51 40 50 -15 0 -59 -7 -98 -15z"/>
</g>
</svg>
